<svg width="15" height="16" viewBox="0 0 15 16" fill="none" xmlns="http://www.w3.org/2000/svg">
<path fill-rule="evenodd" clip-rule="evenodd" d="M7.5016 3.32629C6.35344 3.32629 5.42267 4.25706 5.42267 5.40522C5.42267 6.55339 6.35344 7.48416 7.5016 7.48416C8.64977 7.48416 9.58054 6.55339 9.58054 5.40522C9.58054 4.25706 8.64977 3.32629 7.5016 3.32629ZM6.25424 5.40522C6.25424 4.71633 6.81271 4.15786 7.5016 4.15786C8.1905 4.15786 8.74896 4.71633 8.74896 5.40522C8.74896 6.09412 8.1905 6.65258 7.5016 6.65258C6.81271 6.65258 6.25424 6.09412 6.25424 5.40522Z" fill="#EBFF00"/>
<path fill-rule="evenodd" clip-rule="evenodd" d="M7.5016 0C4.51638 0 2.09638 2.42 2.09638 5.40522C2.09638 6.30218 2.31485 7.1481 2.70149 7.89269L0 12.5718L3.18083 12.8835L5.04114 15.4823L7.5 11.2234L9.95886 15.4823L11.8192 12.8835L15 12.5718L12.3002 7.89561C12.6878 7.15032 12.9068 6.30335 12.9068 5.40522C12.9068 2.42 10.4868 0 7.5016 0ZM1.36539 11.87L3.20449 8.68461C4.05892 9.80249 5.33966 10.5772 6.80398 10.7658L4.9662 13.949L3.6374 12.0926L1.36539 11.87ZM11.7969 8.687C10.9419 9.80435 9.66076 10.5783 8.19624 10.7662L10.0338 13.949L11.3626 12.0926L13.6346 11.87L11.7969 8.687ZM2.92795 5.40522C2.92795 2.87927 4.97565 0.831573 7.5016 0.831573C10.0276 0.831573 12.0753 2.87927 12.0753 5.40522C12.0753 7.93118 10.0276 9.97888 7.5016 9.97888C4.97565 9.97888 2.92795 7.93118 2.92795 5.40522Z" fill="#EBFF00"/>
</svg>
