<svg width="15" height="14" viewBox="0 0 15 14" fill="none" xmlns="http://www.w3.org/2000/svg">
<path fill-rule="evenodd" clip-rule="evenodd" d="M1.59997 1.9193C1.06954 2.61184 0.789474 3.56189 0.789474 4.55263C0.789474 5.58183 1.19355 6.60231 1.83414 7.57055C2.474 8.53769 3.3344 9.42904 4.20709 10.1915C5.07826 10.9527 5.95131 11.5764 6.6075 12.0103C6.9352 12.2269 7.20786 12.3956 7.39788 12.5096C7.43519 12.532 7.46929 12.5523 7.5 12.5705C7.5307 12.5523 7.56481 12.532 7.60212 12.5096C7.79214 12.3956 8.0648 12.2269 8.3925 12.0103C9.04869 11.5764 9.92174 10.9527 10.7929 10.1915C11.6656 9.42904 12.526 8.53769 13.1659 7.57055C13.8065 6.60231 14.2105 5.58183 14.2105 4.55263C14.2105 3.56119 13.9326 2.6112 13.4035 1.91899C12.883 1.23797 12.1088 0.789474 11.0526 0.789474C9.98556 0.789474 9.18375 1.23242 8.64086 1.68482C8.36919 1.91122 8.16536 2.13777 8.03028 2.30662C7.96291 2.39084 7.91314 2.46006 7.88106 2.50685C7.86503 2.53022 7.85346 2.54793 7.84635 2.55904C7.8428 2.56459 7.84037 2.56849 7.83905 2.57061C7.83856 2.5714 7.83823 2.57194 7.83805 2.57223C7.83802 2.57228 7.83799 2.57232 7.83799 2.57232C7.83797 2.57236 7.83793 2.57244 7.83793 2.57244L7.5014 3.13331L7.16281 2.57365L7.16275 2.57355C7.16275 2.57355 7.16272 2.5735 7.16269 2.57346C7.16251 2.57317 7.16217 2.57261 7.16166 2.57179C7.16032 2.56966 7.15786 2.56575 7.15427 2.56018C7.14708 2.54903 7.1354 2.53129 7.11924 2.50787C7.08689 2.46101 7.03675 2.3917 6.96896 2.3074C6.83304 2.13838 6.62819 1.91164 6.35575 1.68508C5.81114 1.23218 5.00922 0.789474 3.94737 0.789474C2.89648 0.789474 2.12206 1.23766 1.59997 1.9193ZM7.5 13.0263C7.30849 13.3715 7.30838 13.3714 7.30824 13.3713L7.30653 13.3704L7.30201 13.3679C7.29814 13.3657 7.29259 13.3626 7.28541 13.3585C7.27105 13.3504 7.25015 13.3385 7.22316 13.323C7.16918 13.2919 7.0908 13.2461 6.99151 13.1865C6.79296 13.0673 6.51052 12.8926 6.17211 12.6688C5.49606 12.2219 4.59279 11.5769 3.68765 10.786C2.78402 9.99652 1.8681 9.05267 1.17573 8.00616C0.484084 6.96077 0 5.78917 0 4.55263C0 3.42495 0.316972 2.29606 0.973217 1.43925C1.63781 0.571548 2.6397 0 3.94737 0C5.24407 0 6.21847 0.544132 6.86054 1.07808C7.12931 1.30159 7.34209 1.52498 7.49911 1.70978C7.65547 1.52496 7.86741 1.3017 8.13545 1.07833C8.77678 0.543896 9.75128 0 11.0526 0C12.3648 0 13.367 0.571244 14.0307 1.43957C14.6859 2.2967 15 3.42566 15 4.55263C15 5.78917 14.5159 6.96077 13.8243 8.00616C13.1319 9.05267 12.216 9.99652 11.3124 10.786C10.4072 11.5769 9.50394 12.2219 8.82789 12.6688C8.48948 12.8926 8.20704 13.0673 8.00849 13.1865C7.90919 13.2461 7.83082 13.2919 7.77684 13.323C7.74985 13.3385 7.72895 13.3504 7.71459 13.3585C7.70981 13.3612 7.70575 13.3635 7.70243 13.3654C7.70076 13.3663 7.69928 13.3671 7.69799 13.3679L7.69347 13.3704L7.69176 13.3713C7.69162 13.3714 7.69151 13.3715 7.5 13.0263ZM7.5 13.0263L7.69151 13.3715L7.5 13.4777L7.30849 13.3715L7.5 13.0263Z" fill="white"/>
</svg>
