<svg width="18" height="18" viewBox="0 0 18 18" fill="none" xmlns="http://www.w3.org/2000/svg">
<path fill-rule="evenodd" clip-rule="evenodd" d="M13.0815 0.925615C14.0578 -0.050696 15.6407 -0.0506954 16.617 0.925615C17.5933 1.90193 17.5933 3.48484 16.617 4.46115L15.0678 6.01041L17.5426 13.435L14.7376 16.24L11.1628 9.91533L7.94971 13.1284L8.92199 14.9846L6.36396 17.5426L0 11.1787L2.55803 8.62064L4.41418 9.59291L7.6273 6.3798L1.30262 2.80498L4.1076 0L11.5322 2.47487L13.0815 0.925615ZM15.9099 1.63272C15.3241 1.04694 14.3744 1.04694 13.7886 1.63272L11.8023 3.619L4.37769 1.14412L2.94002 2.58179L9.2647 6.1566L4.60143 10.8199L2.74528 9.8476L1.41421 11.1787L6.36396 16.1284L7.69502 14.7973L6.72275 12.9412L11.386 8.27792L14.9608 14.6026L16.3985 13.1649L13.9236 5.74032L15.9099 3.75404C16.4957 3.16826 16.4957 2.21851 15.9099 1.63272Z" fill="#D1E302"/>
</svg>
